<?xml version="1.0" encoding="UTF-8"?>
<svg xmlns="http://www.w3.org/2000/svg" viewBox="0 0 600 400">
  <!-- Holographic Bar Chart -->
  <defs>
    <!-- Gradient for bars -->
    <linearGradient id="barGradient" x1="0%" y1="0%" x2="0%" y2="100%">
      <stop offset="0%" stop-color="#00f0ff" stop-opacity="1" />
      <stop offset="100%" stop-color="#00f0ff" stop-opacity="0.2" />
    </linearGradient>
    
    <!-- Gradient for base -->
    <linearGradient id="baseGradient" x1="0%" y1="0%" x2="100%" y2="0%">
      <stop offset="0%" stop-color="#00f0ff" stop-opacity="0.1" />
      <stop offset="50%" stop-color="#00f0ff" stop-opacity="0.3" />
      <stop offset="100%" stop-color="#00f0ff" stop-opacity="0.1" />
    </linearGradient>
    
    <!-- Glow effect -->
    <filter id="dataGlow" x="-50%" y="-50%" width="200%" height="200%">
      <feGaussianBlur stdDeviation="3" result="blur" />
      <feComposite in="SourceGraphic" in2="blur" operator="over" />
    </filter>
  </defs>
  
  <!-- Base layer/platform -->
  <rect x="50" y="300" width="500" height="20" rx="2" ry="2" fill="url(#baseGradient)" opacity="0.6" />
  
  <!-- Grid lines -->
  <g stroke="#ffffff" stroke-width="0.5" stroke-dasharray="2,2" opacity="0.2">
    <line x1="50" y1="50" x2="550" y2="50" />
    <line x1="50" y1="100" x2="550" y2="100" />
    <line x1="50" y1="150" x2="550" y2="150" />
    <line x1="50" y1="200" x2="550" y2="200" />
    <line x1="50" y1="250" x2="550" y2="250" />
    <line x1="50" y1="300" x2="550" y2="300" />
    
    <line x1="100" y1="50" x2="100" y2="300" />
    <line x1="150" y1="50" x2="150" y2="300" />
    <line x1="200" y1="50" x2="200" y2="300" />
    <line x1="250" y1="50" x2="250" y2="300" />
    <line x1="300" y1="50" x2="300" y2="300" />
    <line x1="350" y1="50" x2="350" y2="300" />
    <line x1="400" y1="50" x2="400" y2="300" />
    <line x1="450" y1="50" x2="450" y2="300" />
    <line x1="500" y1="50" x2="500" y2="300" />
  </g>
  
  <!-- Bars with 3D effect -->
  <g filter="url(#dataGlow)">
    <!-- Bar 1 -->
    <rect x="80" y="150" width="40" height="150" fill="url(#barGradient)" opacity="0.8" />
    <rect x="80" y="150" width="40" height="10" fill="#00f0ff" opacity="0.9" />
    <rect x="80" y="300" width="40" height="3" fill="#ffffff" opacity="0.5" />
    
    <!-- Bar 2 -->
    <rect x="130" y="200" width="40" height="100" fill="url(#barGradient)" opacity="0.8" />
    <rect x="130" y="200" width="40" height="10" fill="#00f0ff" opacity="0.9" />
    <rect x="130" y="300" width="40" height="3" fill="#ffffff" opacity="0.5" />
    
    <!-- Bar 3 -->
    <rect x="180" y="100" width="40" height="200" fill="url(#barGradient)" opacity="0.8" />
    <rect x="180" y="100" width="40" height="10" fill="#00f0ff" opacity="0.9" />
    <rect x="180" y="300" width="40" height="3" fill="#ffffff" opacity="0.5" />
    
    <!-- Bar 4 -->
    <rect x="230" y="180" width="40" height="120" fill="url(#barGradient)" opacity="0.8" />
    <rect x="230" y="180" width="40" height="10" fill="#00f0ff" opacity="0.9" />
    <rect x="230" y="300" width="40" height="3" fill="#ffffff" opacity="0.5" />
    
    <!-- Bar 5 -->
    <rect x="280" y="80" width="40" height="220" fill="url(#barGradient)" opacity="0.8" />
    <rect x="280" y="80" width="40" height="10" fill="#00f0ff" opacity="0.9" />
    <rect x="280" y="300" width="40" height="3" fill="#ffffff" opacity="0.5" />
    
    <!-- Bar 6 -->
    <rect x="330" y="120" width="40" height="180" fill="url(#barGradient)" opacity="0.8" />
    <rect x="330" y="120" width="40" height="10" fill="#00f0ff" opacity="0.9" />
    <rect x="330" y="300" width="40" height="3" fill="#ffffff" opacity="0.5" />
    
    <!-- Bar 7 -->
    <rect x="380" y="170" width="40" height="130" fill="url(#barGradient)" opacity="0.8" />
    <rect x="380" y="170" width="40" height="10" fill="#00f0ff" opacity="0.9" />
    <rect x="380" y="300" width="40" height="3" fill="#ffffff" opacity="0.5" />
    
    <!-- Bar 8 -->
    <rect x="430" y="220" width="40" height="80" fill="url(#barGradient)" opacity="0.8" />
    <rect x="430" y="220" width="40" height="10" fill="#00f0ff" opacity="0.9" />
    <rect x="430" y="300" width="40" height="3" fill="#ffffff" opacity="0.5" />
    
    <!-- Bar 9 -->
    <rect x="480" y="130" width="40" height="170" fill="url(#barGradient)" opacity="0.8" />
    <rect x="480" y="130" width="40" height="10" fill="#00f0ff" opacity="0.9" />
    <rect x="480" y="300" width="40" height="3" fill="#ffffff" opacity="0.5" />
  </g>
  
  <!-- Value labels -->
  <g fill="#ffffff" font-family="Arial, sans-serif" font-size="12" text-anchor="middle">
    <text x="100" y="140">65</text>
    <text x="150" y="190">42</text>
    <text x="200" y="90">85</text>
    <text x="250" y="170">51</text>
    <text x="300" y="70">93</text>
    <text x="350" y="110">76</text>
    <text x="400" y="160">55</text>
    <text x="450" y="210">34</text>
    <text x="500" y="120">72</text>
  </g>
  
  <!-- Axes labels -->
  <g fill="#ffffff" font-family="Arial, sans-serif" font-size="14">
    <text x="300" y="350" text-anchor="middle">DATA POINTS</text>
    <text x="20" y="175" text-anchor="middle" transform="rotate(-90, 20, 175)">VALUES</text>
  </g>
</svg>